<!-- Uploaded to: SVG Repo, www.svgrepo.com, Transformed by: SVG Repo Mixer Tools -->
<svg width="800px" height="800px" viewBox="0 -3 150 150" fill="none" xmlns="http://www.w3.org/2000/svg">
<path d="M121.362 80.91L131.781 120H118.862L113.981 102H75V120H62.5V102L44.95 89.364C37.7 97.896 27.025 105 18.75 105V76.176V76.002L6.25 72V66H33.0687L55.2938 50.22C57.3313 48.834 59.8125 48 62.5 48C64.2625 48 65.9312 48.36 67.45 48.99L116.537 72H120.212C123.862 72 128.125 70.428 128.125 66C128.125 61.572 123.862 60 120.212 60C110.475 60 103.125 52.26 103.125 42V24H109.375L118.75 42H112.5C112.5 47.214 115.75 51 120.212 51C130.231 51 137.5 57.306 137.5 66C137.5 74.346 130.762 80.436 121.362 80.91Z" fill="#424242"/>
<path opacity="0.3" d="M103.125 24H109.375L118.75 42H103.125V24Z" fill="#000000"/>
<path opacity="0.4" d="M31.25 72C31.25 75.312 28.45 78 25 78L6.25 72V66H25C28.45 66 31.25 68.688 31.25 72Z" fill="white"/>
</svg>